<!-- icon666.com - MILLIONS vector ICONS FREE --><svg viewBox="0 0 32 32" xmlns="http://www.w3.org/2000/svg"><g id="Search_engine" data-name="Search engine"><path d="m22.79 23.78a1 1 0 0 1 -.71-.29l-3.54-3.54a1 1 0 0 1 1.46-1.42l3.54 3.54a1 1 0 0 1 -.71 1.71z" fill="#434343"></path><path d="m30 25.71-3.78-3.71a2.86 2.86 0 0 0 -4 0l-.21.21a2.85 2.85 0 0 0 0 4l3.72 3.79a2.85 2.85 0 0 0 4 0l.21-.21a2.86 2.86 0 0 0 .06-4.08z" fill="#616261" style="fill: rgb(8, 8, 8);"></path><rect fill="#e1f3f7" height="13" rx="3.35" width="28" x="2" y="2" style="fill: rgb(255, 255, 255);"></rect><path d="m20 10a7 7 0 1 0 2 5 7 7 0 0 0 -2-5z" fill="#9e9d9e" style="fill: rgb(255, 255, 255);"></path><path d="m30 25.71-3.78-3.71a2.85 2.85 0 0 0 -3.33-.5l-2.28-2.28a6.94 6.94 0 0 0 1.39-4.22h4.64a3.35 3.35 0 0 0 3.36-3.35v-6.3a3.35 3.35 0 0 0 -3.35-3.35h-21.3a3.35 3.35 0 0 0 -3.35 3.35v6.31a3.35 3.35 0 0 0 3.35 3.34h2.65a7 7 0 0 0 11.2 5.6l2.28 2.28a2.81 2.81 0 0 0 .5 3.33l3.75 3.79a2.85 2.85 0 0 0 4 0l.21-.21a2.86 2.86 0 0 0 .06-4.08zm-26-14.06v-6.3a1.35 1.35 0 0 1 1.35-1.35h21.3a1.35 1.35 0 0 1 1.35 1.35v6.31a1.35 1.35 0 0 1 -1.35 1.34h-4.93a7 7 0 0 0 -13.42 0h-3a1.35 1.35 0 0 1 -1.3-1.35zm7.48 6.88a5 5 0 1 1 7.07 0 5 5 0 0 1 -7.07 0zm17.08 9.8-.21.21a.87.87 0 0 1 -1.2 0l-3.75-3.75a.85.85 0 0 1 0-1.2l.21-.21a.85.85 0 0 1 1.21 0l3.75 3.75a.85.85 0 0 1 -.01 1.2z" fill="#000000"></path></g></svg>